<svg xmlns="http://www.w3.org/2000/svg" viewBox="0 0 408.28 373.86">
  <defs>
    <style>
      .cls-1, .cls-3, .cls-5 {
        fill: #837bb9;
      }

      .cls-2 {
        font-size: 22.37px;
        fill: none;
        font-family: Poppins-ExtraBold, Poppins;
        font-weight: 800;
      }

      .cls-3 {
        letter-spacing: 0em;
      }

      .cls-4 {
        font-size: 15.18px;
        fill: #111;
        font-family: Poppins-SemiBold, Poppins;
        font-weight: 600;
      }

      .cls-5 {
        font-size: 15.24px;
        letter-spacing: 0em;
      }

      .cls-6 {
        fill: #957fef;
      }
    </style>
  </defs>
  <g id="Calque_2" data-name="Calque 2">
    <g id="Calque_2-2" data-name="Calque 2">
      <g>
        <g>
          <path class="cls-1" d="M111.37,304.86v14.29a.75.75,0,0,1-.75.74h-3.24a.74.74,0,0,1-.74-.74v-5.59h-5.77v5.59a.75.75,0,0,1-.75.74H96.88a.74.74,0,0,1-.74-.74V304.86a.74.74,0,0,1,.74-.74h3.24a.75.75,0,0,1,.75.74v5.19h5.77v-5.19a.74.74,0,0,1,.74-.74h3.24A.75.75,0,0,1,111.37,304.86Z"/>
          <text class="cls-2" transform="translate(95.27 319.89) scale(1.08 1)">H<tspan class="cls-3" x="16.62" y="0">elp Overcoming</tspan><tspan class="cls-4"><tspan x="-5.28" y="18.29">Partner-based Exploitation</tspan><tspan class="cls-5" x="203.45" y="18.29"> </tspan></tspan></text>
        </g>
        <g>
          <path class="cls-6" d="M317.88,258.6a22.67,22.67,0,0,0,4.6-9H305.89q-2.29,4.94-8.12,4.93a9.32,9.32,0,0,1-6.61-2.51,10.56,10.56,0,0,1-3.06-7.25h35.3a40.31,40.31,0,0,0,.27-4.56,26.8,26.8,0,0,0-3.24-13.4,22.24,22.24,0,0,0-9-8.85,27.18,27.18,0,0,0-13.13-3.1A27.47,27.47,0,0,0,284.91,218a22.38,22.38,0,0,0-9.07,9.12,31.24,31.24,0,0,0-.44,26.78,341.36,341.36,0,0,1,35.71,10.18A22.72,22.72,0,0,0,317.88,258.6Zm-26.36-29a9.87,9.87,0,0,1,6.61-2.28,10.06,10.06,0,0,1,6.84,2.37,8,8,0,0,1,2.74,6.39H288.19A10.17,10.17,0,0,1,291.52,229.6Z"/>
          <path class="cls-1" d="M275.88,254.86A22.62,22.62,0,0,0,285,264a27.28,27.28,0,0,0,13.32,3.2,26.77,26.77,0,0,0,11.21-2.28c.55-.25,1.07-.52,1.58-.8a341.36,341.36,0,0,0-35.71-10.18C275.56,254.24,275.71,254.56,275.88,254.86Z"/>
          <path class="cls-6" d="M264.53,227.14a22.19,22.19,0,0,0-8.07-9.12,21.08,21.08,0,0,0-11.4-3.19,19.34,19.34,0,0,0-9.4,2.19,17,17,0,0,0-6.29,5.74v-4.38a2.82,2.82,0,0,0-2.82-2.82h-10a2.82,2.82,0,0,0-2.82,2.82v26.45q8.26.6,16.35,1.49a15.67,15.67,0,0,1-.85-5.32q0-5.83,3.24-9.21a10.5,10.5,0,0,1,7.89-3.37,10.7,10.7,0,0,1,8,3.33q3.23,3.33,3.23,9.16a13.52,13.52,0,0,1-2.25,8q8.31,1.32,16.37,2.94a32.59,32.59,0,0,0,1.75-10.93A30.48,30.48,0,0,0,264.53,227.14Z"/>
          <path class="cls-1" d="M248.34,250.17a10.9,10.9,0,0,1-15.82,0,10.86,10.86,0,0,1-2.39-3.89q-8.08-.9-16.35-1.49v43a2.83,2.83,0,0,0,2.82,2.83h10a2.83,2.83,0,0,0,2.82-2.83V259.33a17.13,17.13,0,0,0,6.34,5.66,19.36,19.36,0,0,0,9.35,2.19,20.86,20.86,0,0,0,11.4-3.24,22.45,22.45,0,0,0,8.07-9.21,25.49,25.49,0,0,0,1.21-2.89q-8.06-1.62-16.37-2.94A12.43,12.43,0,0,1,248.34,250.17Z"/>
          <path class="cls-1" d="M128.87,263.62a2.83,2.83,0,0,0,2.83,2.83h9.94a2.83,2.83,0,0,0,2.83-2.83V245.19q-7.89.66-15.6,1.59Z"/>
          <path class="cls-1" d="M89,263.62a2.83,2.83,0,0,0,2.82,2.83h10a2.83,2.83,0,0,0,2.82-2.83v-13.2q-7.92,1.44-15.59,3.16Z"/>
          <path class="cls-6" d="M144.47,243V205.25a2.83,2.83,0,0,0-2.83-2.82H131.7a2.83,2.83,0,0,0-2.83,2.82V227.5H104.61V205.25a2.82,2.82,0,0,0-2.82-2.82h-10A2.82,2.82,0,0,0,89,205.25v48.33q7.67-1.71,15.59-3.16V240.09h24.26v6.69q7.71-.93,15.6-1.59h0Z"/>
          <path class="cls-6" d="M202,227.19a23.49,23.49,0,0,0-9.48-9.17,30.16,30.16,0,0,0-27,0,23.49,23.49,0,0,0-9.48,9.17,25.52,25.52,0,0,0-3.14,9.37c-.14,1.07-.23,2.17-.28,3.29,0,.39,0,.76,0,1.15a31.76,31.76,0,0,0,.21,3.58q7.86-.5,15.85-.73a21.3,21.3,0,0,1-.19-2.85q0-6.19,3-9.44a10.37,10.37,0,0,1,15.09.05q3.06,3.28,3.06,9.39a19.81,19.81,0,0,1-.18,2.74q8,.15,15.87.55a32,32,0,0,0,.18-3.29A27,27,0,0,0,202,227.19Z"/>
          <path class="cls-1" d="M186.46,250.4a10.66,10.66,0,0,1-3.07,2.23,10.14,10.14,0,0,1-4.54,1.05,9.6,9.6,0,0,1-7.43-3.28,11.78,11.78,0,0,1-2.76-6.44s0-.07,0-.11q-8,.22-15.85.73c.07.58.15,1.15.25,1.71a28.24,28.24,0,0,0,1,4.1c0,.11.09.21.12.32a23.72,23.72,0,0,0,1.82,4.15,23.24,23.24,0,0,0,9.4,9.12,28,28,0,0,0,13.45,3.2,30.62,30.62,0,0,0,5.74-.55c.39-.07.78-.14,1.16-.23a28.06,28.06,0,0,0,4.36-1.4q.66-.27,1.29-.57c.33-.16.67-.28,1-.45a23.27,23.27,0,0,0,3.56-2.34,23.83,23.83,0,0,0,6-6.82,25.62,25.62,0,0,0,3.33-10.53q-7.86-.4-15.87-.55A11.61,11.61,0,0,1,186.46,250.4Z"/>
        </g>
        <path class="cls-6" d="M400.44,146.37c-12.88-4.36-22.92-8-31-10.92-3.55-1.29-6.68-2.43-9.52-3.43A42.92,42.92,0,0,0,335.28,54h-.46a42.91,42.91,0,0,0-24.42,77.86c-2.31.81-4.8,1.71-7.48,2.67-4.39,1.58-9.27,3.33-14.94,5.3V104.65a13,13,0,0,0-9.26-12.41c-13.87-4.08-25-7.55-33.86-10.34-5.81-1.82-10.82-3.39-15.23-4.7A42.91,42.91,0,0,0,203.82,0h-.68a42.91,42.91,0,0,0-25.29,77.06c-3.63,1.08-7.67,2.33-12.31,3.77-9.85,3-22.09,6.84-38.39,11.44a13,13,0,0,0-9.34,12.42v6.84c-4-1.45-7.61-2.78-10.89-4-5.89-2.18-10.69-4-14.82-5.35A42.9,42.9,0,0,0,74.29,20.58H73.6A42.93,42.93,0,0,0,54.72,102c-3.61,1.22-7.76,2.73-12.78,4.57-8.67,3.17-19.45,7.11-34.2,12A11.42,11.42,0,0,0,0,129.4V251.85a11.15,11.15,0,0,0,3.25,8,12.25,12.25,0,0,0,8.64,3.54,10.81,10.81,0,0,0,1.27-.07,5.45,5.45,0,0,1,5.29,5.44v93.69a11.45,11.45,0,0,0,11.43,11.43H379.64a11.56,11.56,0,0,0,11.58-11.59l-.08-54.1,0-11.45a5.65,5.65,0,0,1,5.74-5.59,11.62,11.62,0,0,0,11.42-11.57V157.32A11.58,11.58,0,0,0,400.44,146.37ZM310.12,96.88a25.18,25.18,0,1,1,25.18,25.18A25.21,25.21,0,0,1,310.12,96.88ZM203.83,17.73a25.18,25.18,0,1,1-25.18,25.18A25.21,25.21,0,0,1,203.83,17.73ZM48.42,63.48A25.18,25.18,0,1,1,73.6,88.66,25.21,25.21,0,0,1,48.42,63.48ZM373.48,356.13H36.18V268.74a23.32,23.32,0,0,0-18.45-22.68V134c12.77-4.28,22.45-7.82,30.3-10.69,13.32-4.87,20-7.31,25.1-7.31,5.38,0,12.81,2.74,27.63,8.22,7.11,2.62,15.85,5.85,26.84,9.67v37.73a8.87,8.87,0,0,0,17.73,0v-42.2a11.46,11.46,0,0,0-7.68-10.8l-2.11-.72v-9.51c14.79-4.22,26.09-7.72,35.27-10.56,16.9-5.24,25.38-7.86,32.61-7.86,7.64,0,17.17,3,36.14,8.92,8.17,2.56,18.24,5.71,30.69,9.41v37.54l-1.89.62a11.55,11.55,0,0,0-7.9,11v14.2a8.87,8.87,0,0,0,17.73,0v-9.72c12.92-4.25,22.74-7.78,30.73-10.64,13.7-4.93,20.58-7.4,25.91-7.4,5.63,0,13.3,2.79,28.58,8.33,7.2,2.61,16.06,5.82,27.13,9.61V274.22a23.32,23.32,0,0,0-17.15,22.53v2.16Z"/>
      </g>
    </g>
  </g>
</svg>
